<mxfile host="app.diagrams.net" modified="2024-03-29T15:39:35.857Z" agent="Mozilla/5.0 (Windows NT 10.0; Win64; x64) AppleWebKit/537.36 (KHTML, like Gecko) Chrome/123.0.0.0 Safari/537.36" etag="UJ65QK_czvTGVIe9ABKr" version="24.2.1" type="github">
  <diagram name="Page-1" id="c37626ed-c26b-45fb-9056-f9ebc6bb27b6">
    <mxGraphModel dx="1248" dy="660" grid="1" gridSize="10" guides="1" tooltips="1" connect="1" arrows="1" fold="1" page="1" pageScale="1" pageWidth="1100" pageHeight="850" background="none" math="0" shadow="0">
      <root>
        <mxCell id="0" />
        <mxCell id="1" parent="0" />
        <mxCell id="1c7a67bf8fd3230f-66" style="edgeStyle=none;html=1;labelBackgroundColor=none;startFill=0;endArrow=none;endFill=0;strokeWidth=2;fontFamily=Verdana;fontSize=12;exitX=0.672;exitY=0.986;exitDx=0;exitDy=0;exitPerimeter=0;" parent="1" source="_w0s7zMu0JdSo-vEeNBk-4" target="1c7a67bf8fd3230f-21" edge="1">
          <mxGeometry relative="1" as="geometry">
            <mxPoint x="470" y="200" as="sourcePoint" />
          </mxGeometry>
        </mxCell>
        <mxCell id="1c7a67bf8fd3230f-67" style="edgeStyle=none;html=1;labelBackgroundColor=none;startFill=0;endArrow=none;endFill=0;strokeWidth=2;fontFamily=Verdana;fontSize=12;entryX=1.067;entryY=0.557;entryDx=0;entryDy=0;entryPerimeter=0;" parent="1" source="1c7a67bf8fd3230f-21" target="_w0s7zMu0JdSo-vEeNBk-1" edge="1">
          <mxGeometry relative="1" as="geometry">
            <mxPoint x="184" y="333.4421487603306" as="targetPoint" />
          </mxGeometry>
        </mxCell>
        <mxCell id="1c7a67bf8fd3230f-79" style="edgeStyle=none;html=1;labelBackgroundColor=none;startFill=0;endArrow=none;endFill=0;strokeWidth=2;fontFamily=Verdana;fontSize=12;entryX=0.517;entryY=-0.029;entryDx=0;entryDy=0;entryPerimeter=0;" parent="1" source="1c7a67bf8fd3230f-21" target="_w0s7zMu0JdSo-vEeNBk-3" edge="1">
          <mxGeometry relative="1" as="geometry">
            <mxPoint x="401.5924764890283" y="620" as="targetPoint" />
          </mxGeometry>
        </mxCell>
        <mxCell id="1c7a67bf8fd3230f-21" value="" style="shape=mxgraph.cisco.misc.route_switch_processor;html=1;dashed=0;fillColor=#036897;strokeColor=#ffffff;strokeWidth=2;verticalLabelPosition=bottom;verticalAlign=top;rounded=0;shadow=0;comic=0;fontFamily=Verdana;fontSize=12;" parent="1" vertex="1">
          <mxGeometry x="444" y="301" width="64" height="86" as="geometry" />
        </mxCell>
        <mxCell id="_w0s7zMu0JdSo-vEeNBk-8" style="edgeStyle=orthogonalEdgeStyle;rounded=0;orthogonalLoop=1;jettySize=auto;html=1;curved=1;dashed=1;strokeWidth=2;strokeColor=#FF0000;" edge="1" parent="1" target="_w0s7zMu0JdSo-vEeNBk-1">
          <mxGeometry relative="1" as="geometry">
            <mxPoint x="280" y="480" as="targetPoint" />
            <mxPoint x="450" y="610" as="sourcePoint" />
          </mxGeometry>
        </mxCell>
        <mxCell id="_w0s7zMu0JdSo-vEeNBk-16" value="" style="edgeStyle=orthogonalEdgeStyle;rounded=0;orthogonalLoop=1;jettySize=auto;html=1;strokeWidth=2;strokeColor=#FF0000;" edge="1" parent="1" source="_w0s7zMu0JdSo-vEeNBk-1" target="_w0s7zMu0JdSo-vEeNBk-13">
          <mxGeometry relative="1" as="geometry" />
        </mxCell>
        <mxCell id="_w0s7zMu0JdSo-vEeNBk-1" value="" style="html=1;verticalLabelPosition=bottom;align=center;labelBackgroundColor=#ffffff;verticalAlign=top;strokeWidth=2;strokeColor=#0080F0;shadow=0;dashed=0;shape=mxgraph.ios7.icons.smartphone;" vertex="1" parent="1">
          <mxGeometry x="186" y="301" width="40" height="70" as="geometry" />
        </mxCell>
        <mxCell id="_w0s7zMu0JdSo-vEeNBk-3" value="Mobile B" style="html=1;verticalLabelPosition=bottom;align=center;labelBackgroundColor=#ffffff;verticalAlign=top;strokeWidth=2;strokeColor=#0080F0;shadow=0;dashed=0;shape=mxgraph.ios7.icons.smartphone;" vertex="1" parent="1">
          <mxGeometry x="454" y="570" width="40" height="70" as="geometry" />
        </mxCell>
        <mxCell id="_w0s7zMu0JdSo-vEeNBk-4" value="" style="html=1;verticalLabelPosition=bottom;align=center;labelBackgroundColor=#ffffff;verticalAlign=top;strokeWidth=2;strokeColor=#0080F0;shadow=0;dashed=0;shape=mxgraph.ios7.icons.smartphone;" vertex="1" parent="1">
          <mxGeometry x="450" y="51" width="40" height="70" as="geometry" />
        </mxCell>
        <mxCell id="_w0s7zMu0JdSo-vEeNBk-5" value="Mobile C" style="html=1;verticalLabelPosition=bottom;align=center;labelBackgroundColor=#ffffff;verticalAlign=top;strokeWidth=2;strokeColor=#0080F0;shadow=0;dashed=0;shape=mxgraph.ios7.icons.smartphone;" vertex="1" parent="1">
          <mxGeometry x="740" y="309" width="40" height="70" as="geometry" />
        </mxCell>
        <mxCell id="_w0s7zMu0JdSo-vEeNBk-6" style="edgeStyle=none;html=1;labelBackgroundColor=none;startFill=0;endArrow=none;endFill=0;strokeWidth=2;fontFamily=Verdana;fontSize=12;entryX=-0.061;entryY=0.53;entryDx=0;entryDy=0;entryPerimeter=0;" edge="1" parent="1" target="_w0s7zMu0JdSo-vEeNBk-5">
          <mxGeometry relative="1" as="geometry">
            <mxPoint x="510" y="345" as="sourcePoint" />
            <mxPoint x="630" y="345" as="targetPoint" />
          </mxGeometry>
        </mxCell>
        <mxCell id="_w0s7zMu0JdSo-vEeNBk-9" value="Mobile A" style="rounded=0;whiteSpace=wrap;html=1;dashed=1;strokeColor=none;" vertex="1" parent="1">
          <mxGeometry x="126" y="326" width="50" height="20" as="geometry" />
        </mxCell>
        <mxCell id="_w0s7zMu0JdSo-vEeNBk-10" value="Mobile D" style="rounded=0;whiteSpace=wrap;html=1;dashed=1;strokeColor=none;" vertex="1" parent="1">
          <mxGeometry x="444" y="20" width="50" height="20" as="geometry" />
        </mxCell>
        <mxCell id="_w0s7zMu0JdSo-vEeNBk-11" value="Google/YouTube&lt;div&gt;.....&lt;/div&gt;" style="ellipse;shape=cloud;whiteSpace=wrap;html=1;" vertex="1" parent="1">
          <mxGeometry x="146" y="51" width="120" height="80" as="geometry" />
        </mxCell>
        <mxCell id="_w0s7zMu0JdSo-vEeNBk-15" value="" style="edgeStyle=orthogonalEdgeStyle;rounded=0;orthogonalLoop=1;jettySize=auto;html=1;strokeColor=#FF0000;strokeWidth=2;" edge="1" parent="1" source="_w0s7zMu0JdSo-vEeNBk-13" target="_w0s7zMu0JdSo-vEeNBk-11">
          <mxGeometry relative="1" as="geometry" />
        </mxCell>
        <mxCell id="_w0s7zMu0JdSo-vEeNBk-13" value="" style="image;html=1;image=img/lib/clip_art/networking/Firewall_128x128.png" vertex="1" parent="1">
          <mxGeometry x="176" y="190" width="60" height="50" as="geometry" />
        </mxCell>
        <mxCell id="_w0s7zMu0JdSo-vEeNBk-17" value="Route Peer" style="rounded=0;whiteSpace=wrap;html=1;dashed=1;strokeColor=none;" vertex="1" parent="1">
          <mxGeometry x="236" y="309" width="70" height="20" as="geometry" />
        </mxCell>
        <mxCell id="_w0s7zMu0JdSo-vEeNBk-20" value="&amp;nbsp;Peer" style="rounded=0;whiteSpace=wrap;html=1;dashed=1;strokeColor=none;" vertex="1" parent="1">
          <mxGeometry x="490" y="525" width="40" height="20" as="geometry" />
        </mxCell>
        <mxCell id="_w0s7zMu0JdSo-vEeNBk-21" value="&amp;nbsp;Peer" style="rounded=0;whiteSpace=wrap;html=1;dashed=1;strokeColor=none;" vertex="1" parent="1">
          <mxGeometry x="501" y="76" width="40" height="20" as="geometry" />
        </mxCell>
        <mxCell id="_w0s7zMu0JdSo-vEeNBk-22" value="&amp;nbsp;Peer" style="rounded=0;whiteSpace=wrap;html=1;dashed=1;strokeColor=none;" vertex="1" parent="1">
          <mxGeometry x="800" y="334" width="30" height="20" as="geometry" />
        </mxCell>
      </root>
    </mxGraphModel>
  </diagram>
</mxfile>
